<mxfile host="app.diagrams.net" modified="2023-12-23T16:01:54.085Z" agent="Mozilla/5.0 (Windows NT 10.0; Win64; x64) AppleWebKit/537.36 (KHTML, like Gecko) Chrome/120.0.0.0 Safari/537.36" etag="TtFIVzkgTGS00GphO8bN" version="22.1.11" type="github">
  <diagram name="PÃ¡gina-1" id="X8G2azw5o-MZhAxnsT3J">
    <mxGraphModel dx="880" dy="434" grid="1" gridSize="10" guides="1" tooltips="1" connect="1" arrows="1" fold="1" page="1" pageScale="1" pageWidth="827" pageHeight="1169" math="0" shadow="0">
      <root>
        <mxCell id="0" />
        <mxCell id="1" parent="0" />
        <mxCell id="RLv4_chH5I3VvkHMkaYy-1" value="Inicio" style="ellipse;whiteSpace=wrap;html=1;" parent="1" vertex="1">
          <mxGeometry x="180" width="120" height="80" as="geometry" />
        </mxCell>
        <mxCell id="RLv4_chH5I3VvkHMkaYy-2" value="" style="endArrow=classic;html=1;rounded=0;" parent="1" edge="1">
          <mxGeometry width="50" height="50" relative="1" as="geometry">
            <mxPoint x="240" y="80" as="sourcePoint" />
            <mxPoint x="239.5" y="120" as="targetPoint" />
          </mxGeometry>
        </mxCell>
        <mxCell id="wAze0K7U0jHMKGcXloTr-16" value="" style="edgeStyle=orthogonalEdgeStyle;rounded=0;orthogonalLoop=1;jettySize=auto;html=1;" edge="1" parent="1" source="RLv4_chH5I3VvkHMkaYy-3" target="RLv4_chH5I3VvkHMkaYy-4">
          <mxGeometry relative="1" as="geometry" />
        </mxCell>
        <mxCell id="RLv4_chH5I3VvkHMkaYy-3" value="Saldo" style="shape=parallelogram;perimeter=parallelogramPerimeter;whiteSpace=wrap;html=1;fixedSize=1;" parent="1" vertex="1">
          <mxGeometry x="180" y="120" width="120" height="60" as="geometry" />
        </mxCell>
        <mxCell id="RLv4_chH5I3VvkHMkaYy-4" value="Saldo inicial: + saldo&lt;br&gt;" style="shape=dataStorage;whiteSpace=wrap;html=1;fixedSize=1;" parent="1" vertex="1">
          <mxGeometry x="334" y="150" width="166" height="80" as="geometry" />
        </mxCell>
        <mxCell id="RLv4_chH5I3VvkHMkaYy-9" value="" style="endArrow=classic;html=1;rounded=0;exitX=0.5;exitY=1;exitDx=0;exitDy=0;" parent="1" target="RLv4_chH5I3VvkHMkaYy-10" edge="1" source="RLv4_chH5I3VvkHMkaYy-4">
          <mxGeometry width="50" height="50" relative="1" as="geometry">
            <mxPoint x="413" y="190" as="sourcePoint" />
            <mxPoint x="370" y="250" as="targetPoint" />
            <Array as="points">
              <mxPoint x="410" y="250" />
            </Array>
          </mxGeometry>
        </mxCell>
        <mxCell id="RLv4_chH5I3VvkHMkaYy-10" value="Encerrar = `n`" style="rounded=1;whiteSpace=wrap;html=1;" parent="1" vertex="1">
          <mxGeometry x="180" y="230" width="120" height="40" as="geometry" />
        </mxCell>
        <mxCell id="RLv4_chH5I3VvkHMkaYy-11" value="Encerrar = `n`" style="rhombus;whiteSpace=wrap;html=1;" parent="1" vertex="1">
          <mxGeometry x="190" y="310" width="100" height="80" as="geometry" />
        </mxCell>
        <mxCell id="RLv4_chH5I3VvkHMkaYy-12" value="" style="endArrow=classic;html=1;rounded=0;" parent="1" edge="1">
          <mxGeometry width="50" height="50" relative="1" as="geometry">
            <mxPoint x="239.5" y="270" as="sourcePoint" />
            <mxPoint x="240" y="310" as="targetPoint" />
          </mxGeometry>
        </mxCell>
        <mxCell id="RLv4_chH5I3VvkHMkaYy-13" value="" style="endArrow=classic;html=1;rounded=0;entryX=0.975;entryY=0.533;entryDx=0;entryDy=0;entryPerimeter=0;" parent="1" edge="1" target="3h2gf1_WNZhuAaKRgvft-3">
          <mxGeometry width="50" height="50" relative="1" as="geometry">
            <mxPoint x="280" y="349.5" as="sourcePoint" />
            <mxPoint x="680" y="1380" as="targetPoint" />
            <Array as="points">
              <mxPoint x="780" y="350" />
              <mxPoint x="750" y="1280" />
            </Array>
          </mxGeometry>
        </mxCell>
        <mxCell id="RLv4_chH5I3VvkHMkaYy-14" value="" style="endArrow=classic;html=1;rounded=0;" parent="1" target="RLv4_chH5I3VvkHMkaYy-15" edge="1">
          <mxGeometry width="50" height="50" relative="1" as="geometry">
            <mxPoint x="239.5" y="390" as="sourcePoint" />
            <mxPoint x="239.5" y="460" as="targetPoint" />
          </mxGeometry>
        </mxCell>
        <mxCell id="wAze0K7U0jHMKGcXloTr-18" value="" style="edgeStyle=orthogonalEdgeStyle;rounded=0;orthogonalLoop=1;jettySize=auto;html=1;" edge="1" parent="1" source="RLv4_chH5I3VvkHMkaYy-15" target="RLv4_chH5I3VvkHMkaYy-17">
          <mxGeometry relative="1" as="geometry" />
        </mxCell>
        <mxCell id="RLv4_chH5I3VvkHMkaYy-15" value="Tipo de entrada" style="shape=trapezoid;perimeter=trapezoidPerimeter;whiteSpace=wrap;html=1;fixedSize=1;" parent="1" vertex="1">
          <mxGeometry x="180" y="413" width="120" height="60" as="geometry" />
        </mxCell>
        <mxCell id="RLv4_chH5I3VvkHMkaYy-16" value="" style="endArrow=classic;html=1;rounded=0;" parent="1" target="RLv4_chH5I3VvkHMkaYy-17" edge="1">
          <mxGeometry width="50" height="50" relative="1" as="geometry">
            <mxPoint x="239.5" y="515" as="sourcePoint" />
            <mxPoint x="239.5" y="585" as="targetPoint" />
          </mxGeometry>
        </mxCell>
        <mxCell id="wAze0K7U0jHMKGcXloTr-19" value="" style="edgeStyle=orthogonalEdgeStyle;rounded=0;orthogonalLoop=1;jettySize=auto;html=1;" edge="1" parent="1" source="RLv4_chH5I3VvkHMkaYy-17" target="RLv4_chH5I3VvkHMkaYy-19">
          <mxGeometry relative="1" as="geometry" />
        </mxCell>
        <mxCell id="RLv4_chH5I3VvkHMkaYy-17" value="Quantidade." style="shape=trapezoid;perimeter=trapezoidPerimeter;whiteSpace=wrap;html=1;fixedSize=1;" parent="1" vertex="1">
          <mxGeometry x="180" y="510" width="120" height="60" as="geometry" />
        </mxCell>
        <mxCell id="RLv4_chH5I3VvkHMkaYy-18" value="" style="endArrow=classic;html=1;rounded=0;" parent="1" edge="1" target="RLv4_chH5I3VvkHMkaYy-19">
          <mxGeometry width="50" height="50" relative="1" as="geometry">
            <mxPoint x="239.5" y="615" as="sourcePoint" />
            <mxPoint x="239.5" y="675" as="targetPoint" />
          </mxGeometry>
        </mxCell>
        <mxCell id="RLv4_chH5I3VvkHMkaYy-19" value="Tipo entrada = 1" style="rhombus;whiteSpace=wrap;html=1;" parent="1" vertex="1">
          <mxGeometry x="170" y="620" width="140" height="100" as="geometry" />
        </mxCell>
        <mxCell id="RLv4_chH5I3VvkHMkaYy-20" value="" style="endArrow=classic;html=1;rounded=0;entryX=0;entryY=0.5;entryDx=0;entryDy=0;" parent="1" source="RLv4_chH5I3VvkHMkaYy-19" target="RLv4_chH5I3VvkHMkaYy-22" edge="1">
          <mxGeometry width="50" height="50" relative="1" as="geometry">
            <mxPoint x="280" y="720" as="sourcePoint" />
            <mxPoint x="350" y="720" as="targetPoint" />
          </mxGeometry>
        </mxCell>
        <mxCell id="RLv4_chH5I3VvkHMkaYy-21" value="" style="endArrow=classic;html=1;rounded=0;" parent="1" edge="1" target="RLv4_chH5I3VvkHMkaYy-27" source="RLv4_chH5I3VvkHMkaYy-19">
          <mxGeometry width="50" height="50" relative="1" as="geometry">
            <mxPoint x="239.5" y="760" as="sourcePoint" />
            <mxPoint x="239.5" y="820" as="targetPoint" />
          </mxGeometry>
        </mxCell>
        <mxCell id="wAze0K7U0jHMKGcXloTr-21" value="" style="edgeStyle=orthogonalEdgeStyle;rounded=0;orthogonalLoop=1;jettySize=auto;html=1;" edge="1" parent="1" source="RLv4_chH5I3VvkHMkaYy-22" target="RLv4_chH5I3VvkHMkaYy-24">
          <mxGeometry relative="1" as="geometry" />
        </mxCell>
        <mxCell id="RLv4_chH5I3VvkHMkaYy-22" value="saldo = saldo + quantidade" style="rounded=1;whiteSpace=wrap;html=1;" parent="1" vertex="1">
          <mxGeometry x="354" y="640" width="120" height="60" as="geometry" />
        </mxCell>
        <mxCell id="RLv4_chH5I3VvkHMkaYy-24" value="&quot;Entrada&quot; + quantidade" style="shape=dataStorage;whiteSpace=wrap;html=1;fixedSize=1;" parent="1" vertex="1">
          <mxGeometry x="540" y="623" width="100" height="80" as="geometry" />
        </mxCell>
        <mxCell id="RLv4_chH5I3VvkHMkaYy-25" value="" style="endArrow=classic;html=1;rounded=0;" parent="1" edge="1">
          <mxGeometry width="50" height="50" relative="1" as="geometry">
            <mxPoint x="586.5" y="700" as="sourcePoint" />
            <mxPoint x="257" y="740" as="targetPoint" />
            <Array as="points">
              <mxPoint x="587" y="740" />
            </Array>
          </mxGeometry>
        </mxCell>
        <mxCell id="RLv4_chH5I3VvkHMkaYy-27" value="Tipo entrada = 2&lt;br&gt;" style="rhombus;whiteSpace=wrap;html=1;" parent="1" vertex="1">
          <mxGeometry x="189.5" y="770" width="100" height="100" as="geometry" />
        </mxCell>
        <mxCell id="wAze0K7U0jHMKGcXloTr-23" value="" style="edgeStyle=orthogonalEdgeStyle;rounded=0;orthogonalLoop=1;jettySize=auto;html=1;" edge="1" parent="1" source="RLv4_chH5I3VvkHMkaYy-28" target="RLv4_chH5I3VvkHMkaYy-37">
          <mxGeometry relative="1" as="geometry" />
        </mxCell>
        <mxCell id="RLv4_chH5I3VvkHMkaYy-28" value="Saldo &amp;gt;= Quantidade&lt;br&gt;" style="rhombus;whiteSpace=wrap;html=1;" parent="1" vertex="1">
          <mxGeometry x="354" y="775" width="96" height="90" as="geometry" />
        </mxCell>
        <mxCell id="RLv4_chH5I3VvkHMkaYy-29" value="" style="endArrow=classic;html=1;rounded=0;entryX=0;entryY=0.5;entryDx=0;entryDy=0;" parent="1" target="RLv4_chH5I3VvkHMkaYy-28" edge="1" source="RLv4_chH5I3VvkHMkaYy-27">
          <mxGeometry width="50" height="50" relative="1" as="geometry">
            <mxPoint x="280" y="870" as="sourcePoint" />
            <mxPoint x="350" y="870" as="targetPoint" />
          </mxGeometry>
        </mxCell>
        <mxCell id="RLv4_chH5I3VvkHMkaYy-31" value="" style="endArrow=classic;html=1;rounded=0;" parent="1" edge="1" target="RLv4_chH5I3VvkHMkaYy-32" source="RLv4_chH5I3VvkHMkaYy-28">
          <mxGeometry width="50" height="50" relative="1" as="geometry">
            <mxPoint x="440" y="870" as="sourcePoint" />
            <mxPoint x="550" y="870" as="targetPoint" />
          </mxGeometry>
        </mxCell>
        <mxCell id="wAze0K7U0jHMKGcXloTr-25" value="" style="edgeStyle=orthogonalEdgeStyle;rounded=0;orthogonalLoop=1;jettySize=auto;html=1;" edge="1" parent="1" source="RLv4_chH5I3VvkHMkaYy-32" target="RLv4_chH5I3VvkHMkaYy-38">
          <mxGeometry relative="1" as="geometry" />
        </mxCell>
        <mxCell id="RLv4_chH5I3VvkHMkaYy-32" value="Saldo = Saldo - Quantidade&lt;br&gt;" style="rounded=1;whiteSpace=wrap;html=1;" parent="1" vertex="1">
          <mxGeometry x="540" y="790" width="120" height="60" as="geometry" />
        </mxCell>
        <mxCell id="RLv4_chH5I3VvkHMkaYy-33" value="" style="endArrow=classic;html=1;rounded=0;" parent="1" edge="1" source="RLv4_chH5I3VvkHMkaYy-38">
          <mxGeometry width="50" height="50" relative="1" as="geometry">
            <mxPoint x="610" y="910" as="sourcePoint" />
            <mxPoint x="610" y="990" as="targetPoint" />
          </mxGeometry>
        </mxCell>
        <mxCell id="wAze0K7U0jHMKGcXloTr-26" value="" style="edgeStyle=orthogonalEdgeStyle;rounded=0;orthogonalLoop=1;jettySize=auto;html=1;" edge="1" parent="1" source="RLv4_chH5I3VvkHMkaYy-35" target="3h2gf1_WNZhuAaKRgvft-3">
          <mxGeometry relative="1" as="geometry" />
        </mxCell>
        <mxCell id="RLv4_chH5I3VvkHMkaYy-35" value="Saldo" style="shape=hexagon;perimeter=hexagonPerimeter2;whiteSpace=wrap;html=1;fixedSize=1;" parent="1" vertex="1">
          <mxGeometry x="180" y="1120" width="120" height="80" as="geometry" />
        </mxCell>
        <mxCell id="RLv4_chH5I3VvkHMkaYy-36" value="" style="endArrow=classic;html=1;rounded=0;exitX=0.5;exitY=1;exitDx=0;exitDy=0;entryX=0.454;entryY=0.025;entryDx=0;entryDy=0;entryPerimeter=0;" parent="1" source="RLv4_chH5I3VvkHMkaYy-27" target="RLv4_chH5I3VvkHMkaYy-35" edge="1">
          <mxGeometry width="50" height="50" relative="1" as="geometry">
            <mxPoint x="214.5" y="960" as="sourcePoint" />
            <mxPoint x="215" y="990" as="targetPoint" />
          </mxGeometry>
        </mxCell>
        <mxCell id="RLv4_chH5I3VvkHMkaYy-37" value="&quot;Saldo Insuficiente&quot;" style="shape=dataStorage;whiteSpace=wrap;html=1;fixedSize=1;" parent="1" vertex="1">
          <mxGeometry x="324" y="940" width="156" height="80" as="geometry" />
        </mxCell>
        <mxCell id="3h2gf1_WNZhuAaKRgvft-1" value="" style="endArrow=classic;html=1;rounded=0;" parent="1" edge="1" source="RLv4_chH5I3VvkHMkaYy-37">
          <mxGeometry width="50" height="50" relative="1" as="geometry">
            <mxPoint x="396" y="1070" as="sourcePoint" />
            <mxPoint x="240" y="1060" as="targetPoint" />
            <Array as="points">
              <mxPoint x="402" y="1060" />
            </Array>
          </mxGeometry>
        </mxCell>
        <mxCell id="3h2gf1_WNZhuAaKRgvft-2" value="" style="endArrow=classic;html=1;rounded=0;exitX=0.37;exitY=1.025;exitDx=0;exitDy=0;exitPerimeter=0;" parent="1" edge="1" source="RLv4_chH5I3VvkHMkaYy-38">
          <mxGeometry width="50" height="50" relative="1" as="geometry">
            <mxPoint x="615" y="1080" as="sourcePoint" />
            <mxPoint x="250" y="1090" as="targetPoint" />
            <Array as="points">
              <mxPoint x="580" y="1090" />
            </Array>
          </mxGeometry>
        </mxCell>
        <mxCell id="wAze0K7U0jHMKGcXloTr-27" value="" style="edgeStyle=orthogonalEdgeStyle;rounded=0;orthogonalLoop=1;jettySize=auto;html=1;" edge="1" parent="1" source="3h2gf1_WNZhuAaKRgvft-3" target="3h2gf1_WNZhuAaKRgvft-5">
          <mxGeometry relative="1" as="geometry" />
        </mxCell>
        <mxCell id="3h2gf1_WNZhuAaKRgvft-3" value="Encerrar ? (s/n)" style="shape=trapezoid;perimeter=trapezoidPerimeter;whiteSpace=wrap;html=1;fixedSize=1;" parent="1" vertex="1">
          <mxGeometry x="179.5" y="1260" width="120" height="60" as="geometry" />
        </mxCell>
        <mxCell id="wAze0K7U0jHMKGcXloTr-28" value="" style="edgeStyle=orthogonalEdgeStyle;rounded=0;orthogonalLoop=1;jettySize=auto;html=1;" edge="1" parent="1" source="3h2gf1_WNZhuAaKRgvft-5" target="3h2gf1_WNZhuAaKRgvft-6">
          <mxGeometry relative="1" as="geometry" />
        </mxCell>
        <mxCell id="3h2gf1_WNZhuAaKRgvft-5" value="Sistema Encerrado" style="shape=document;whiteSpace=wrap;html=1;boundedLbl=1;" parent="1" vertex="1">
          <mxGeometry x="179.5" y="1350" width="120" height="80" as="geometry" />
        </mxCell>
        <mxCell id="3h2gf1_WNZhuAaKRgvft-6" value="Fim" style="rounded=0;whiteSpace=wrap;html=1;" parent="1" vertex="1">
          <mxGeometry x="180" y="1490" width="120" height="60" as="geometry" />
        </mxCell>
        <mxCell id="3h2gf1_WNZhuAaKRgvft-9" value="" style="endArrow=classic;html=1;rounded=0;entryX=0;entryY=0.5;entryDx=0;entryDy=0;exitX=0;exitY=0.5;exitDx=0;exitDy=0;" parent="1" target="RLv4_chH5I3VvkHMkaYy-11" edge="1" source="3h2gf1_WNZhuAaKRgvft-3">
          <mxGeometry width="50" height="50" relative="1" as="geometry">
            <mxPoint x="210" y="1370" as="sourcePoint" />
            <mxPoint x="130" y="1340" as="targetPoint" />
            <Array as="points">
              <mxPoint x="70" y="1290" />
              <mxPoint x="40" y="714" />
              <mxPoint x="40" y="350" />
            </Array>
          </mxGeometry>
        </mxCell>
        <mxCell id="wAze0K7U0jHMKGcXloTr-3" value="&lt;span style=&quot;font-size: 30px;&quot;&gt;F&lt;/span&gt;" style="text;html=1;align=center;verticalAlign=middle;resizable=0;points=[];autosize=1;strokeColor=none;fillColor=none;strokeWidth=1;fontStyle=1;fontSize=30;" vertex="1" parent="1">
          <mxGeometry x="474" y="290" width="40" height="50" as="geometry" />
        </mxCell>
        <mxCell id="wAze0K7U0jHMKGcXloTr-5" value="F" style="text;html=1;align=center;verticalAlign=middle;resizable=0;points=[];autosize=1;strokeColor=none;fillColor=none;fontSize=25;" vertex="1" parent="1">
          <mxGeometry x="190" y="1010" width="40" height="40" as="geometry" />
        </mxCell>
        <mxCell id="wAze0K7U0jHMKGcXloTr-8" value="F" style="text;html=1;align=center;verticalAlign=middle;resizable=0;points=[];autosize=1;strokeColor=none;fillColor=none;fontSize=29;" vertex="1" parent="1">
          <mxGeometry x="350" y="890" width="40" height="50" as="geometry" />
        </mxCell>
        <mxCell id="wAze0K7U0jHMKGcXloTr-9" value="V&lt;font style=&quot;font-size: 23px;&quot;&gt;&lt;br style=&quot;font-size: 23px;&quot;&gt;&lt;/font&gt;" style="text;html=1;align=center;verticalAlign=middle;resizable=0;points=[];autosize=1;strokeColor=none;fillColor=none;fontSize=23;fontStyle=1" vertex="1" parent="1">
          <mxGeometry x="290" y="780" width="40" height="40" as="geometry" />
        </mxCell>
        <mxCell id="wAze0K7U0jHMKGcXloTr-10" value="V" style="text;html=1;align=center;verticalAlign=middle;resizable=0;points=[];autosize=1;strokeColor=none;fillColor=none;fontSize=25;fontStyle=1" vertex="1" parent="1">
          <mxGeometry x="460" y="780" width="40" height="40" as="geometry" />
        </mxCell>
        <mxCell id="wAze0K7U0jHMKGcXloTr-11" value="F" style="text;html=1;align=center;verticalAlign=middle;resizable=0;points=[];autosize=1;strokeColor=none;fillColor=none;fontSize=21;fontStyle=1" vertex="1" parent="1">
          <mxGeometry x="190" y="720" width="40" height="40" as="geometry" />
        </mxCell>
        <mxCell id="wAze0K7U0jHMKGcXloTr-12" value="V" style="text;html=1;align=center;verticalAlign=middle;resizable=0;points=[];autosize=1;strokeColor=none;fillColor=none;fontSize=25;fontStyle=1" vertex="1" parent="1">
          <mxGeometry x="310" y="630" width="40" height="40" as="geometry" />
        </mxCell>
        <mxCell id="wAze0K7U0jHMKGcXloTr-13" value="V" style="text;html=1;align=center;verticalAlign=middle;resizable=0;points=[];autosize=1;strokeColor=none;fillColor=none;fontSize=22;fontStyle=1" vertex="1" parent="1">
          <mxGeometry x="179.5" y="373" width="40" height="40" as="geometry" />
        </mxCell>
        <mxCell id="RLv4_chH5I3VvkHMkaYy-38" value="&quot;Saida&quot;: + quantidade&lt;br&gt;" style="shape=dataStorage;whiteSpace=wrap;html=1;fixedSize=1;" parent="1" vertex="1">
          <mxGeometry x="560" y="930" width="100" height="80" as="geometry" />
        </mxCell>
      </root>
    </mxGraphModel>
  </diagram>
</mxfile>
